REM DIRINDEX 1\5,1\2\6,1\2\7,1\3\8,1\3\9,1\3\10,1\3\11,1\4\12,1\4\13,1\4\14
REM DIRNAME cjc043,folder01,folder02,folder03,folder04,folder05,folder06,folder07,folder08,folder09,folder10,folder11,folder12,folder13
TITLE ""
FILE "5Q_t_032-047.mp3" MP3
  TRACK 01 AUDIO
    TITLE "6:cjc043_0451"
    INDEX 01 00:00:00
  TRACK 02 AUDIO
    TITLE "0:"
    INDEX 01 00:01:13
  TRACK 03 AUDIO
    TITLE "7:cjc043_0452"
    INDEX 01 00:01:64
  TRACK 04 AUDIO
    TITLE "0:"
    INDEX 01 00:03:70
  TRACK 05 AUDIO
    TITLE "6:cjc043_0453"
    INDEX 01 00:04:50
  TRACK 06 AUDIO
    TITLE "0:"
    INDEX 01 00:05:40
  TRACK 07 AUDIO
    TITLE "7:cjc043_0454"
    INDEX 01 00:06:14
  TRACK 08 AUDIO
    TITLE "0:"
    INDEX 01 00:10:23
  TRACK 09 AUDIO
    TITLE "6:cjc043_0455"
    INDEX 01 00:10:72
  TRACK 10 AUDIO
    TITLE "0:"
    INDEX 01 00:12:07
  TRACK 11 AUDIO
    TITLE "7:cjc043_0456"
    INDEX 01 00:12:61
  TRACK 12 AUDIO
    TITLE "0:"
    INDEX 01 00:13:55
  TRACK 13 AUDIO
    TITLE "6:cjc043_0457"
    INDEX 01 00:14:35
  TRACK 14 AUDIO
    TITLE "0:"
    INDEX 01 00:15:34
  TRACK 15 AUDIO
    TITLE "7:cjc043_0458"
    INDEX 01 00:16:04
  TRACK 16 AUDIO
    TITLE "0:"
    INDEX 01 00:18:64
  TRACK 17 AUDIO
    TITLE "6:cjc043_0459"
    INDEX 01 00:19:48
  TRACK 18 AUDIO
    TITLE "0:"
    INDEX 01 00:20:67
  TRACK 19 AUDIO
    TITLE "7:cjc043_0460"
    INDEX 01 00:21:43
  TRACK 20 AUDIO
    TITLE "0:"
    INDEX 01 00:22:58
  TRACK 21 AUDIO
    TITLE "6:cjc043_0461"
    INDEX 01 00:23:36
  TRACK 22 AUDIO
    TITLE "0:"
    INDEX 01 00:24:35
  TRACK 23 AUDIO
    TITLE "7:cjc043_0462"
    INDEX 01 00:25:09
  TRACK 24 AUDIO
    TITLE "0:"
    INDEX 01 00:29:33
  TRACK 25 AUDIO
    TITLE "6:cjc043_0463"
    INDEX 01 00:30:05
  TRACK 26 AUDIO
    TITLE "0:"
    INDEX 01 00:31:04
  TRACK 27 AUDIO
    TITLE "7:cjc043_0464"
    INDEX 01 00:31:59
  TRACK 28 AUDIO
    TITLE "0:"
    INDEX 01 00:37:28
  TRACK 29 AUDIO
    TITLE "6:cjc043_0465"
    INDEX 01 00:38:08
  TRACK 30 AUDIO
    TITLE "0:"
    INDEX 01 00:39:15
  TRACK 31 AUDIO
    TITLE "7:cjc043_0466"
    INDEX 01 00:39:72
  TRACK 32 AUDIO
    TITLE "0:"
    INDEX 01 00:43:70
  TRACK 33 AUDIO
    TITLE "6:cjc043_0467"
    INDEX 01 00:44:40
  TRACK 34 AUDIO
    TITLE "0:"
    INDEX 01 00:45:49
  TRACK 35 AUDIO
    TITLE "7:cjc043_0468"
    INDEX 01 00:46:25
  TRACK 36 AUDIO
    TITLE "0:"
    INDEX 01 00:52:57
  TRACK 37 AUDIO
    TITLE "6:cjc043_0469"
    INDEX 01 00:53:27
  TRACK 38 AUDIO
    TITLE "0:"
    INDEX 01 00:54:25
  TRACK 39 AUDIO
    TITLE "7:cjc043_0470"
    INDEX 01 00:55:03
  TRACK 40 AUDIO
    TITLE "0:"
    INDEX 01 00:56:67
  TRACK 41 AUDIO
    TITLE "6:cjc043_0471"
    INDEX 01 00:57:45
  TRACK 42 AUDIO
    TITLE "0:"
    INDEX 01 00:58:48
  TRACK 43 AUDIO
    TITLE "7:cjc043_0472"
    INDEX 01 00:59:34
  TRACK 44 AUDIO
    TITLE "0:"
    INDEX 01 01:01:52
  TRACK 45 AUDIO
    TITLE "6:cjc043_0473"
    INDEX 01 01:02:32
  TRACK 46 AUDIO
    TITLE "0:"
    INDEX 01 01:03:43
  TRACK 47 AUDIO
    TITLE "7:cjc043_0474"
    INDEX 01 01:04:23
  TRACK 48 AUDIO
    TITLE "0:"
    INDEX 01 01:07:37
  TRACK 49 AUDIO
    TITLE "6:cjc043_0475"
    INDEX 01 01:08:07
  TRACK 50 AUDIO
    TITLE "0:"
    INDEX 01 01:09:18
  TRACK 51 AUDIO
    TITLE "7:cjc043_0476"
    INDEX 01 01:09:71
  TRACK 52 AUDIO
    TITLE "0:"
    INDEX 01 01:12:66
  TRACK 53 AUDIO
    TITLE "6:cjc043_0477"
    INDEX 01 01:13:40
  TRACK 54 AUDIO
    TITLE "0:"
    INDEX 01 01:14:43
  TRACK 55 AUDIO
    TITLE "7:cjc043_0478"
    INDEX 01 01:15:25
  TRACK 56 AUDIO
    TITLE "0:"
    INDEX 01 01:18:43
  TRACK 57 AUDIO
    TITLE "6:cjc043_0479"
    INDEX 01 01:19:19
  TRACK 58 AUDIO
    TITLE "0:"
    INDEX 01 01:20:10
  TRACK 59 AUDIO
    TITLE "7:cjc043_0480"
    INDEX 01 01:20:63
  TRACK 60 AUDIO
    TITLE "0:"
    INDEX 01 01:22:07
  TRACK 61 AUDIO
    TITLE "6:cjc043_0481"
    INDEX 01 01:22:58
  TRACK 62 AUDIO
    TITLE "0:"
    INDEX 01 01:24:04
  TRACK 63 AUDIO
    TITLE "7:cjc043_0482"
    INDEX 01 01:24:55
  TRACK 64 AUDIO
    TITLE "0:"
    INDEX 01 01:25:45
